<svg height="512pt" viewBox="0 0 512 512.001" width="512pt" xmlns="http://www.w3.org/2000/svg"><path d="m374.8125 282.480469-56.402344 56.398437c-27.304687-18.199218-53.792968-40.078125-78.882812-65.167968-25.574219-25.574219-47.789063-52.566407-66.164063-80.371094l56.15625-56.152344-137.1875-137.1875-70.453125 70.453125-.410156.425781c-26.640625 28.832032-28.550781 77.511719-5.378906 137.078125 21.742187 55.886719 63.472656 116.421875 117.503906 170.453125 54.671875 54.671875 115.839844 96.644532 172.226562 118.179688 26.949219 10.289062 51.585938 15.410156 73.125 15.410156 26.667969 0 48.578126-7.855469 64.203126-23.480469l68.851562-68.851562zm94.742188 137.1875-30.964844 30.964843-94.746094-94.742187 30.96875-30.96875zm-282.480469-282.480469-32.753907 32.753906-94.742187-94.742187 32.753906-32.757813zm129.453125 331.363281c-52.53125-20.0625-109.960938-59.609375-161.714844-111.363281-51.152344-51.152344-90.484375-108.015625-110.75-160.113281-16.832031-43.265625-18.519531-79.066407-5.042969-99.992188l103.011719 103.015625c20.644531 32.957032 46.296875 64.859375 76.273438 94.835938 29.730468 29.730468 61.40625 55.25 94.144531 75.84375l10.136719 6.375.035156-.039063 94.375 94.371094c-20.339844 14.839844-56.382813 13.902344-100.46875-2.933594zm0 0"/></svg>